<mxfile host="Electron" modified="2023-12-16T14:43:36.611Z" agent="Mozilla/5.0 (X11; Linux x86_64) AppleWebKit/537.36 (KHTML, like Gecko) draw.io/22.1.2 Chrome/114.0.5735.289 Electron/25.9.4 Safari/537.36" etag="lxU67f2vFil9nLBddhjH" version="22.1.2" type="device">
  <diagram name="Page-1" id="doDastdoEOmTKRFv8Jxt">
    <mxGraphModel dx="2595" dy="618" grid="1" gridSize="10" guides="1" tooltips="1" connect="1" arrows="1" fold="1" page="1" pageScale="1" pageWidth="850" pageHeight="1100" math="0" shadow="0">
      <root>
        <mxCell id="0" />
        <mxCell id="1" parent="0" />
        <mxCell id="LHvr_J-ciVx7S9QtgNXV-1" value="Pre_Process" style="rounded=0;whiteSpace=wrap;html=1;" parent="1" vertex="1">
          <mxGeometry y="230" width="70" height="280" as="geometry" />
        </mxCell>
        <mxCell id="LHvr_J-ciVx7S9QtgNXV-3" value="" style="group" parent="1" vertex="1" connectable="0">
          <mxGeometry x="170" y="230" width="91" height="110" as="geometry" />
        </mxCell>
        <mxCell id="LHvr_J-ciVx7S9QtgNXV-4" value="" style="endArrow=none;html=1;rounded=0;" parent="LHvr_J-ciVx7S9QtgNXV-3" edge="1">
          <mxGeometry width="50" height="50" relative="1" as="geometry">
            <mxPoint as="sourcePoint" />
            <mxPoint x="50" y="27.5" as="targetPoint" />
          </mxGeometry>
        </mxCell>
        <mxCell id="LHvr_J-ciVx7S9QtgNXV-5" value="" style="endArrow=none;html=1;rounded=0;" parent="LHvr_J-ciVx7S9QtgNXV-3" edge="1">
          <mxGeometry width="50" height="50" relative="1" as="geometry">
            <mxPoint x="50" y="82.5" as="sourcePoint" />
            <mxPoint x="50" y="27.5" as="targetPoint" />
          </mxGeometry>
        </mxCell>
        <mxCell id="LHvr_J-ciVx7S9QtgNXV-6" value="" style="endArrow=none;html=1;rounded=0;" parent="LHvr_J-ciVx7S9QtgNXV-3" edge="1">
          <mxGeometry width="50" height="50" relative="1" as="geometry">
            <mxPoint y="34.375" as="sourcePoint" />
            <mxPoint as="targetPoint" />
          </mxGeometry>
        </mxCell>
        <mxCell id="LHvr_J-ciVx7S9QtgNXV-7" value="" style="endArrow=none;html=1;rounded=0;" parent="LHvr_J-ciVx7S9QtgNXV-3" edge="1">
          <mxGeometry width="50" height="50" relative="1" as="geometry">
            <mxPoint y="110" as="sourcePoint" />
            <mxPoint y="75.625" as="targetPoint" />
          </mxGeometry>
        </mxCell>
        <mxCell id="LHvr_J-ciVx7S9QtgNXV-8" value="" style="endArrow=none;html=1;rounded=0;" parent="LHvr_J-ciVx7S9QtgNXV-3" edge="1">
          <mxGeometry width="50" height="50" relative="1" as="geometry">
            <mxPoint y="110" as="sourcePoint" />
            <mxPoint x="50" y="82.5" as="targetPoint" />
          </mxGeometry>
        </mxCell>
        <mxCell id="LHvr_J-ciVx7S9QtgNXV-9" value="" style="endArrow=none;html=1;rounded=0;" parent="LHvr_J-ciVx7S9QtgNXV-3" edge="1">
          <mxGeometry width="50" height="50" relative="1" as="geometry">
            <mxPoint y="75.625" as="sourcePoint" />
            <mxPoint x="20" y="55" as="targetPoint" />
          </mxGeometry>
        </mxCell>
        <mxCell id="LHvr_J-ciVx7S9QtgNXV-10" value="" style="endArrow=none;html=1;rounded=0;" parent="LHvr_J-ciVx7S9QtgNXV-3" edge="1">
          <mxGeometry width="50" height="50" relative="1" as="geometry">
            <mxPoint y="34.375" as="sourcePoint" />
            <mxPoint x="20" y="55" as="targetPoint" />
          </mxGeometry>
        </mxCell>
        <mxCell id="LHvr_J-ciVx7S9QtgNXV-11" value="&lt;span style=&quot;white-space: pre;&quot;&gt;&#x9;&lt;/span&gt;Flaot_SUB" style="text;html=1;align=center;verticalAlign=middle;resizable=0;points=[];autosize=1;strokeColor=none;fillColor=none;rotation=90;" parent="LHvr_J-ciVx7S9QtgNXV-3" vertex="1">
          <mxGeometry x="-19" y="30" width="110" height="30" as="geometry" />
        </mxCell>
        <mxCell id="LHvr_J-ciVx7S9QtgNXV-97" style="edgeStyle=orthogonalEdgeStyle;rounded=0;orthogonalLoop=1;jettySize=auto;html=1;exitX=1;exitY=0.75;exitDx=0;exitDy=0;" parent="1" source="LHvr_J-ciVx7S9QtgNXV-12" edge="1">
          <mxGeometry relative="1" as="geometry">
            <mxPoint x="250.28571428571445" y="482.28571428571445" as="targetPoint" />
          </mxGeometry>
        </mxCell>
        <mxCell id="LHvr_J-ciVx7S9QtgNXV-102" style="edgeStyle=orthogonalEdgeStyle;rounded=0;orthogonalLoop=1;jettySize=auto;html=1;exitX=1;exitY=0.75;exitDx=0;exitDy=0;entryX=0;entryY=0.5;entryDx=0;entryDy=0;" parent="1" source="LHvr_J-ciVx7S9QtgNXV-12" target="LHvr_J-ciVx7S9QtgNXV-100" edge="1">
          <mxGeometry relative="1" as="geometry" />
        </mxCell>
        <mxCell id="LHvr_J-ciVx7S9QtgNXV-12" value="ROM" style="rounded=0;whiteSpace=wrap;html=1;" parent="1" vertex="1">
          <mxGeometry x="171.0000000000001" y="400" width="90" height="110" as="geometry" />
        </mxCell>
        <mxCell id="LHvr_J-ciVx7S9QtgNXV-46" style="edgeStyle=orthogonalEdgeStyle;rounded=0;orthogonalLoop=1;jettySize=auto;html=1;exitX=1;exitY=0.5;exitDx=0;exitDy=0;entryX=0;entryY=0.5;entryDx=0;entryDy=0;" parent="1" source="LHvr_J-ciVx7S9QtgNXV-20" target="LHvr_J-ciVx7S9QtgNXV-42" edge="1">
          <mxGeometry relative="1" as="geometry" />
        </mxCell>
        <mxCell id="LHvr_J-ciVx7S9QtgNXV-20" value="Float_MUL" style="whiteSpace=wrap;html=1;aspect=fixed;" parent="1" vertex="1">
          <mxGeometry x="300" y="245" width="80" height="80" as="geometry" />
        </mxCell>
        <mxCell id="LHvr_J-ciVx7S9QtgNXV-22" style="edgeStyle=orthogonalEdgeStyle;rounded=0;orthogonalLoop=1;jettySize=auto;html=1;exitX=1;exitY=0.25;exitDx=0;exitDy=0;entryX=0.5;entryY=1;entryDx=0;entryDy=0;" parent="1" source="LHvr_J-ciVx7S9QtgNXV-12" target="LHvr_J-ciVx7S9QtgNXV-20" edge="1">
          <mxGeometry relative="1" as="geometry">
            <mxPoint x="340" y="399.9999999999998" as="sourcePoint" />
          </mxGeometry>
        </mxCell>
        <mxCell id="LHvr_J-ciVx7S9QtgNXV-96" value="d3" style="edgeLabel;html=1;align=center;verticalAlign=middle;resizable=0;points=[];" parent="LHvr_J-ciVx7S9QtgNXV-22" vertex="1" connectable="0">
          <mxGeometry x="-0.3896" y="-2" relative="1" as="geometry">
            <mxPoint as="offset" />
          </mxGeometry>
        </mxCell>
        <mxCell id="LHvr_J-ciVx7S9QtgNXV-23" value="" style="edgeStyle=none;orthogonalLoop=1;jettySize=auto;html=1;rounded=0;exitX=0.591;exitY=0.05;exitDx=0;exitDy=0;exitPerimeter=0;entryX=0;entryY=0.5;entryDx=0;entryDy=0;" parent="1" source="LHvr_J-ciVx7S9QtgNXV-11" edge="1">
          <mxGeometry width="80" relative="1" as="geometry">
            <mxPoint x="221" y="285.5" as="sourcePoint" />
            <mxPoint x="300" y="284.5" as="targetPoint" />
            <Array as="points" />
          </mxGeometry>
        </mxCell>
        <mxCell id="LHvr_J-ciVx7S9QtgNXV-73" style="edgeStyle=orthogonalEdgeStyle;rounded=0;orthogonalLoop=1;jettySize=auto;html=1;exitX=1;exitY=0.5;exitDx=0;exitDy=0;entryX=0;entryY=0.5;entryDx=0;entryDy=0;" parent="1" source="LHvr_J-ciVx7S9QtgNXV-42" target="LHvr_J-ciVx7S9QtgNXV-72" edge="1">
          <mxGeometry relative="1" as="geometry" />
        </mxCell>
        <mxCell id="LHvr_J-ciVx7S9QtgNXV-42" value="Float_ADD" style="whiteSpace=wrap;html=1;aspect=fixed;" parent="1" vertex="1">
          <mxGeometry x="500" y="245" width="80" height="80" as="geometry" />
        </mxCell>
        <mxCell id="LHvr_J-ciVx7S9QtgNXV-84" style="edgeStyle=orthogonalEdgeStyle;rounded=0;orthogonalLoop=1;jettySize=auto;html=1;exitX=1;exitY=0.5;exitDx=0;exitDy=0;entryX=0.5;entryY=1;entryDx=0;entryDy=0;" parent="1" source="LHvr_J-ciVx7S9QtgNXV-117" target="LHvr_J-ciVx7S9QtgNXV-82" edge="1">
          <mxGeometry relative="1" as="geometry">
            <mxPoint x="1270" y="470.0000000000002" as="sourcePoint" />
          </mxGeometry>
        </mxCell>
        <mxCell id="LHvr_J-ciVx7S9QtgNXV-74" style="edgeStyle=orthogonalEdgeStyle;rounded=0;orthogonalLoop=1;jettySize=auto;html=1;entryX=0.5;entryY=0;entryDx=0;entryDy=0;" parent="1" target="LHvr_J-ciVx7S9QtgNXV-72" edge="1">
          <mxGeometry relative="1" as="geometry">
            <mxPoint x="680" y="210" as="sourcePoint" />
          </mxGeometry>
        </mxCell>
        <mxCell id="LHvr_J-ciVx7S9QtgNXV-77" style="edgeStyle=orthogonalEdgeStyle;rounded=0;orthogonalLoop=1;jettySize=auto;html=1;exitX=1;exitY=0.5;exitDx=0;exitDy=0;entryX=0;entryY=0.5;entryDx=0;entryDy=0;" parent="1" source="LHvr_J-ciVx7S9QtgNXV-72" target="LHvr_J-ciVx7S9QtgNXV-75" edge="1">
          <mxGeometry relative="1" as="geometry" />
        </mxCell>
        <mxCell id="LHvr_J-ciVx7S9QtgNXV-72" value="Float_MUL" style="whiteSpace=wrap;html=1;aspect=fixed;" parent="1" vertex="1">
          <mxGeometry x="640" y="245" width="80" height="80" as="geometry" />
        </mxCell>
        <mxCell id="LHvr_J-ciVx7S9QtgNXV-79" style="edgeStyle=orthogonalEdgeStyle;rounded=0;orthogonalLoop=1;jettySize=auto;html=1;exitX=1;exitY=0.5;exitDx=0;exitDy=0;" parent="1" source="LHvr_J-ciVx7S9QtgNXV-75" target="LHvr_J-ciVx7S9QtgNXV-78" edge="1">
          <mxGeometry relative="1" as="geometry" />
        </mxCell>
        <mxCell id="LHvr_J-ciVx7S9QtgNXV-75" value="Float_ADD" style="whiteSpace=wrap;html=1;aspect=fixed;" parent="1" vertex="1">
          <mxGeometry x="810" y="245" width="80" height="80" as="geometry" />
        </mxCell>
        <mxCell id="LHvr_J-ciVx7S9QtgNXV-85" style="edgeStyle=orthogonalEdgeStyle;rounded=0;orthogonalLoop=1;jettySize=auto;html=1;exitX=1;exitY=0.5;exitDx=0;exitDy=0;entryX=0;entryY=0.5;entryDx=0;entryDy=0;" parent="1" source="LHvr_J-ciVx7S9QtgNXV-78" target="LHvr_J-ciVx7S9QtgNXV-82" edge="1">
          <mxGeometry relative="1" as="geometry" />
        </mxCell>
        <mxCell id="LHvr_J-ciVx7S9QtgNXV-78" value="Float_MUL" style="whiteSpace=wrap;html=1;aspect=fixed;" parent="1" vertex="1">
          <mxGeometry x="940" y="245" width="80" height="80" as="geometry" />
        </mxCell>
        <mxCell id="LHvr_J-ciVx7S9QtgNXV-86" style="edgeStyle=orthogonalEdgeStyle;rounded=0;orthogonalLoop=1;jettySize=auto;html=1;exitX=1;exitY=0.5;exitDx=0;exitDy=0;" parent="1" edge="1">
          <mxGeometry relative="1" as="geometry">
            <mxPoint x="1500" y="285.0782352941178" as="targetPoint" />
            <mxPoint x="1230" y="284.49" as="sourcePoint" />
          </mxGeometry>
        </mxCell>
        <mxCell id="LHvr_J-ciVx7S9QtgNXV-82" value="Float_ADD" style="whiteSpace=wrap;html=1;aspect=fixed;" parent="1" vertex="1">
          <mxGeometry x="1150" y="245" width="80" height="80" as="geometry" />
        </mxCell>
        <mxCell id="LHvr_J-ciVx7S9QtgNXV-88" value="" style="endArrow=none;dashed=1;html=1;rounded=0;" parent="1" edge="1">
          <mxGeometry width="50" height="50" relative="1" as="geometry">
            <mxPoint x="120" y="700" as="sourcePoint" />
            <mxPoint x="120" y="30" as="targetPoint" />
          </mxGeometry>
        </mxCell>
        <mxCell id="LHvr_J-ciVx7S9QtgNXV-90" value="" style="endArrow=none;dashed=1;html=1;rounded=0;" parent="1" edge="1">
          <mxGeometry width="50" height="50" relative="1" as="geometry">
            <mxPoint x="420" y="705" as="sourcePoint" />
            <mxPoint x="420" y="35" as="targetPoint" />
          </mxGeometry>
        </mxCell>
        <mxCell id="LHvr_J-ciVx7S9QtgNXV-91" value="" style="endArrow=none;dashed=1;html=1;rounded=0;" parent="1" source="LHvr_J-ciVx7S9QtgNXV-105" edge="1">
          <mxGeometry width="50" height="50" relative="1" as="geometry">
            <mxPoint x="760" y="690" as="sourcePoint" />
            <mxPoint x="760" y="20" as="targetPoint" />
          </mxGeometry>
        </mxCell>
        <mxCell id="LHvr_J-ciVx7S9QtgNXV-92" value="" style="endArrow=none;dashed=1;html=1;rounded=0;" parent="1" edge="1">
          <mxGeometry width="50" height="50" relative="1" as="geometry">
            <mxPoint x="1070" y="700" as="sourcePoint" />
            <mxPoint x="1069.66" y="25" as="targetPoint" />
          </mxGeometry>
        </mxCell>
        <mxCell id="LHvr_J-ciVx7S9QtgNXV-93" value="Reg" style="rounded=0;whiteSpace=wrap;html=1;" parent="1" vertex="1">
          <mxGeometry x="400" y="200" width="40" height="320" as="geometry" />
        </mxCell>
        <mxCell id="LHvr_J-ciVx7S9QtgNXV-116" style="edgeStyle=orthogonalEdgeStyle;rounded=0;orthogonalLoop=1;jettySize=auto;html=1;exitX=1;exitY=0.5;exitDx=0;exitDy=0;entryX=0.5;entryY=0;entryDx=0;entryDy=0;" parent="1" source="LHvr_J-ciVx7S9QtgNXV-99" target="LHvr_J-ciVx7S9QtgNXV-72" edge="1">
          <mxGeometry relative="1" as="geometry" />
        </mxCell>
        <mxCell id="LHvr_J-ciVx7S9QtgNXV-99" value="x" style="rounded=0;whiteSpace=wrap;html=1;" parent="1" vertex="1">
          <mxGeometry x="400" y="160" width="40" height="40" as="geometry" />
        </mxCell>
        <mxCell id="LHvr_J-ciVx7S9QtgNXV-113" style="edgeStyle=orthogonalEdgeStyle;rounded=0;orthogonalLoop=1;jettySize=auto;html=1;exitX=1;exitY=0.25;exitDx=0;exitDy=0;entryX=0.5;entryY=1;entryDx=0;entryDy=0;" parent="1" source="LHvr_J-ciVx7S9QtgNXV-100" target="LHvr_J-ciVx7S9QtgNXV-42" edge="1">
          <mxGeometry relative="1" as="geometry" />
        </mxCell>
        <mxCell id="LHvr_J-ciVx7S9QtgNXV-100" value="d" style="rounded=0;whiteSpace=wrap;html=1;" parent="1" vertex="1">
          <mxGeometry x="400" y="520" width="40" height="80" as="geometry" />
        </mxCell>
        <mxCell id="LHvr_J-ciVx7S9QtgNXV-103" value="d(d2、d1、d0)" style="text;html=1;align=center;verticalAlign=middle;resizable=0;points=[];autosize=1;strokeColor=none;fillColor=none;" parent="1" vertex="1">
          <mxGeometry x="250" y="458" width="100" height="30" as="geometry" />
        </mxCell>
        <mxCell id="LHvr_J-ciVx7S9QtgNXV-107" value="" style="endArrow=none;dashed=1;html=1;rounded=0;" parent="1" target="LHvr_J-ciVx7S9QtgNXV-104" edge="1">
          <mxGeometry width="50" height="50" relative="1" as="geometry">
            <mxPoint x="760" y="700" as="sourcePoint" />
            <mxPoint x="760" y="20" as="targetPoint" />
          </mxGeometry>
        </mxCell>
        <mxCell id="LHvr_J-ciVx7S9QtgNXV-114" style="edgeStyle=orthogonalEdgeStyle;rounded=0;orthogonalLoop=1;jettySize=auto;html=1;exitX=1;exitY=0.25;exitDx=0;exitDy=0;entryX=0.5;entryY=1;entryDx=0;entryDy=0;" parent="1" source="LHvr_J-ciVx7S9QtgNXV-106" target="LHvr_J-ciVx7S9QtgNXV-75" edge="1">
          <mxGeometry relative="1" as="geometry" />
        </mxCell>
        <mxCell id="LHvr_J-ciVx7S9QtgNXV-106" value="d" style="rounded=0;whiteSpace=wrap;html=1;" parent="1" vertex="1">
          <mxGeometry x="740" y="520" width="40" height="60" as="geometry" />
        </mxCell>
        <mxCell id="LHvr_J-ciVx7S9QtgNXV-104" value="Reg" style="rounded=0;whiteSpace=wrap;html=1;" parent="1" vertex="1">
          <mxGeometry x="740" y="200" width="40" height="320" as="geometry" />
        </mxCell>
        <mxCell id="LHvr_J-ciVx7S9QtgNXV-108" value="" style="endArrow=none;dashed=1;html=1;rounded=0;" parent="1" source="LHvr_J-ciVx7S9QtgNXV-104" target="LHvr_J-ciVx7S9QtgNXV-105" edge="1">
          <mxGeometry width="50" height="50" relative="1" as="geometry">
            <mxPoint x="760" y="205" as="sourcePoint" />
            <mxPoint x="760" y="20" as="targetPoint" />
          </mxGeometry>
        </mxCell>
        <mxCell id="LHvr_J-ciVx7S9QtgNXV-115" style="edgeStyle=orthogonalEdgeStyle;rounded=0;orthogonalLoop=1;jettySize=auto;html=1;exitX=1;exitY=0.5;exitDx=0;exitDy=0;entryX=0.5;entryY=0;entryDx=0;entryDy=0;" parent="1" source="LHvr_J-ciVx7S9QtgNXV-105" target="LHvr_J-ciVx7S9QtgNXV-78" edge="1">
          <mxGeometry relative="1" as="geometry">
            <mxPoint x="999.9999999999998" y="209.9999999999999" as="targetPoint" />
          </mxGeometry>
        </mxCell>
        <mxCell id="LHvr_J-ciVx7S9QtgNXV-105" value="x" style="rounded=0;whiteSpace=wrap;html=1;" parent="1" vertex="1">
          <mxGeometry x="740" y="160" width="40" height="40" as="geometry" />
        </mxCell>
        <mxCell id="LHvr_J-ciVx7S9QtgNXV-110" value="" style="edgeStyle=none;orthogonalLoop=1;jettySize=auto;html=1;rounded=0;exitX=1.005;exitY=0.375;exitDx=0;exitDy=0;exitPerimeter=0;" parent="1" source="LHvr_J-ciVx7S9QtgNXV-100" target="LHvr_J-ciVx7S9QtgNXV-106" edge="1">
          <mxGeometry width="80" relative="1" as="geometry">
            <mxPoint x="460" y="550" as="sourcePoint" />
            <mxPoint x="700" y="540" as="targetPoint" />
            <Array as="points" />
          </mxGeometry>
        </mxCell>
        <mxCell id="LHvr_J-ciVx7S9QtgNXV-112" value="d1、d0" style="edgeLabel;html=1;align=center;verticalAlign=middle;resizable=0;points=[];" parent="LHvr_J-ciVx7S9QtgNXV-110" vertex="1" connectable="0">
          <mxGeometry x="-0.1251" y="-2" relative="1" as="geometry">
            <mxPoint as="offset" />
          </mxGeometry>
        </mxCell>
        <mxCell id="LHvr_J-ciVx7S9QtgNXV-117" value="d" style="rounded=0;whiteSpace=wrap;html=1;" parent="1" vertex="1">
          <mxGeometry x="1050" y="520" width="40" height="50" as="geometry" />
        </mxCell>
        <mxCell id="LHvr_J-ciVx7S9QtgNXV-118" value="Reg" style="rounded=0;whiteSpace=wrap;html=1;" parent="1" vertex="1">
          <mxGeometry x="1050" y="200" width="40" height="320" as="geometry" />
        </mxCell>
        <mxCell id="LHvr_J-ciVx7S9QtgNXV-119" value="x" style="rounded=0;whiteSpace=wrap;html=1;" parent="1" vertex="1">
          <mxGeometry x="1050" y="160" width="40" height="40" as="geometry" />
        </mxCell>
        <mxCell id="LHvr_J-ciVx7S9QtgNXV-120" style="edgeStyle=orthogonalEdgeStyle;rounded=0;orthogonalLoop=1;jettySize=auto;html=1;exitX=1;exitY=0.5;exitDx=0;exitDy=0;entryX=-0.015;entryY=0.589;entryDx=0;entryDy=0;entryPerimeter=0;" parent="1" edge="1">
          <mxGeometry relative="1" as="geometry">
            <mxPoint x="780" y="550.6" as="sourcePoint" />
            <mxPoint x="1049.3999999999996" y="550.05" as="targetPoint" />
          </mxGeometry>
        </mxCell>
        <mxCell id="LHvr_J-ciVx7S9QtgNXV-121" value="d0" style="text;html=1;align=center;verticalAlign=middle;resizable=0;points=[];autosize=1;strokeColor=none;fillColor=none;" parent="1" vertex="1">
          <mxGeometry x="900" y="528" width="40" height="30" as="geometry" />
        </mxCell>
        <mxCell id="LHvr_J-ciVx7S9QtgNXV-122" value="" style="edgeStyle=none;orthogonalLoop=1;jettySize=auto;html=1;rounded=0;entryX=0;entryY=0.5;entryDx=0;entryDy=0;" parent="1" target="LHvr_J-ciVx7S9QtgNXV-105" edge="1">
          <mxGeometry width="80" relative="1" as="geometry">
            <mxPoint x="680" y="180" as="sourcePoint" />
            <mxPoint x="700" y="150" as="targetPoint" />
            <Array as="points" />
          </mxGeometry>
        </mxCell>
        <mxCell id="LHvr_J-ciVx7S9QtgNXV-123" value="" style="edgeStyle=none;orthogonalLoop=1;jettySize=auto;html=1;rounded=0;entryX=0;entryY=0.5;entryDx=0;entryDy=0;" parent="1" target="LHvr_J-ciVx7S9QtgNXV-119" edge="1">
          <mxGeometry width="80" relative="1" as="geometry">
            <mxPoint x="980" y="179.76" as="sourcePoint" />
            <mxPoint x="1040" y="179.76" as="targetPoint" />
            <Array as="points" />
          </mxGeometry>
        </mxCell>
        <mxCell id="LHvr_J-ciVx7S9QtgNXV-124" value="d1" style="text;html=1;align=center;verticalAlign=middle;resizable=0;points=[];autosize=1;strokeColor=none;fillColor=none;" parent="1" vertex="1">
          <mxGeometry x="830" y="478" width="40" height="30" as="geometry" />
        </mxCell>
        <mxCell id="LHvr_J-ciVx7S9QtgNXV-125" value="d0" style="text;html=1;align=center;verticalAlign=middle;resizable=0;points=[];autosize=1;strokeColor=none;fillColor=none;" parent="1" vertex="1">
          <mxGeometry x="1120" y="518" width="40" height="30" as="geometry" />
        </mxCell>
        <mxCell id="LHvr_J-ciVx7S9QtgNXV-126" value="Reg" style="rounded=0;whiteSpace=wrap;html=1;" parent="1" vertex="1">
          <mxGeometry x="100" y="220" width="40" height="320" as="geometry" />
        </mxCell>
        <mxCell id="LHvr_J-ciVx7S9QtgNXV-127" value="" style="edgeStyle=none;orthogonalLoop=1;jettySize=auto;html=1;rounded=0;exitX=1.004;exitY=0.094;exitDx=0;exitDy=0;exitPerimeter=0;" parent="1" source="LHvr_J-ciVx7S9QtgNXV-126" edge="1">
          <mxGeometry width="80" relative="1" as="geometry">
            <mxPoint x="140" y="244.99999999999994" as="sourcePoint" />
            <mxPoint x="170" y="250" as="targetPoint" />
            <Array as="points" />
          </mxGeometry>
        </mxCell>
        <mxCell id="LHvr_J-ciVx7S9QtgNXV-128" value="" style="edgeStyle=none;orthogonalLoop=1;jettySize=auto;html=1;rounded=0;exitX=1.004;exitY=0.094;exitDx=0;exitDy=0;exitPerimeter=0;" parent="1" edge="1">
          <mxGeometry width="80" relative="1" as="geometry">
            <mxPoint x="140" y="324.81" as="sourcePoint" />
            <mxPoint x="170" y="324.81" as="targetPoint" />
            <Array as="points" />
          </mxGeometry>
        </mxCell>
        <mxCell id="LHvr_J-ciVx7S9QtgNXV-129" style="edgeStyle=orthogonalEdgeStyle;rounded=0;orthogonalLoop=1;jettySize=auto;html=1;exitX=1;exitY=0.75;exitDx=0;exitDy=0;entryX=0.003;entryY=0.549;entryDx=0;entryDy=0;entryPerimeter=0;" parent="1" source="LHvr_J-ciVx7S9QtgNXV-126" target="LHvr_J-ciVx7S9QtgNXV-12" edge="1">
          <mxGeometry relative="1" as="geometry" />
        </mxCell>
        <mxCell id="LHvr_J-ciVx7S9QtgNXV-339" value="" style="group" parent="1" vertex="1" connectable="0">
          <mxGeometry x="-1180" y="60" width="960" height="550" as="geometry" />
        </mxCell>
        <mxCell id="LHvr_J-ciVx7S9QtgNXV-201" value="" style="rounded=0;whiteSpace=wrap;html=1;" parent="LHvr_J-ciVx7S9QtgNXV-339" vertex="1">
          <mxGeometry width="960" height="550" as="geometry" />
        </mxCell>
        <mxCell id="LHvr_J-ciVx7S9QtgNXV-269" value="" style="group" parent="LHvr_J-ciVx7S9QtgNXV-339" vertex="1" connectable="0">
          <mxGeometry y="19.995555555555555" width="938.9010989010989" height="478.70370370370375" as="geometry" />
        </mxCell>
        <mxCell id="LHvr_J-ciVx7S9QtgNXV-270" value="" style="group" parent="LHvr_J-ciVx7S9QtgNXV-269" vertex="1" connectable="0">
          <mxGeometry width="938.9010989010989" height="478.70370370370375" as="geometry" />
        </mxCell>
        <mxCell id="LHvr_J-ciVx7S9QtgNXV-271" value="" style="group" parent="LHvr_J-ciVx7S9QtgNXV-270" vertex="1" connectable="0">
          <mxGeometry x="116.04395604395603" y="254.62962962962962" width="64.35164835164835" height="112.03703703703704" as="geometry" />
        </mxCell>
        <mxCell id="LHvr_J-ciVx7S9QtgNXV-272" value="" style="endArrow=none;html=1;rounded=0;" parent="LHvr_J-ciVx7S9QtgNXV-271" edge="1">
          <mxGeometry width="50" height="50" relative="1" as="geometry">
            <mxPoint as="sourcePoint" />
            <mxPoint x="52.747252747252745" y="28.00925925925926" as="targetPoint" />
          </mxGeometry>
        </mxCell>
        <mxCell id="LHvr_J-ciVx7S9QtgNXV-273" value="" style="endArrow=none;html=1;rounded=0;" parent="LHvr_J-ciVx7S9QtgNXV-271" edge="1">
          <mxGeometry width="50" height="50" relative="1" as="geometry">
            <mxPoint x="52.747252747252745" y="84.02777777777779" as="sourcePoint" />
            <mxPoint x="52.747252747252745" y="28.00925925925926" as="targetPoint" />
          </mxGeometry>
        </mxCell>
        <mxCell id="LHvr_J-ciVx7S9QtgNXV-274" value="" style="endArrow=none;html=1;rounded=0;" parent="LHvr_J-ciVx7S9QtgNXV-271" edge="1">
          <mxGeometry width="50" height="50" relative="1" as="geometry">
            <mxPoint y="35.01157407407407" as="sourcePoint" />
            <mxPoint as="targetPoint" />
          </mxGeometry>
        </mxCell>
        <mxCell id="LHvr_J-ciVx7S9QtgNXV-275" value="" style="endArrow=none;html=1;rounded=0;" parent="LHvr_J-ciVx7S9QtgNXV-271" edge="1">
          <mxGeometry width="50" height="50" relative="1" as="geometry">
            <mxPoint y="112.03703703703704" as="sourcePoint" />
            <mxPoint y="77.02546296296296" as="targetPoint" />
          </mxGeometry>
        </mxCell>
        <mxCell id="LHvr_J-ciVx7S9QtgNXV-276" value="" style="endArrow=none;html=1;rounded=0;" parent="LHvr_J-ciVx7S9QtgNXV-271" edge="1">
          <mxGeometry width="50" height="50" relative="1" as="geometry">
            <mxPoint y="112.03703703703704" as="sourcePoint" />
            <mxPoint x="52.747252747252745" y="84.02777777777779" as="targetPoint" />
          </mxGeometry>
        </mxCell>
        <mxCell id="LHvr_J-ciVx7S9QtgNXV-277" value="" style="endArrow=none;html=1;rounded=0;" parent="LHvr_J-ciVx7S9QtgNXV-271" edge="1">
          <mxGeometry width="50" height="50" relative="1" as="geometry">
            <mxPoint y="77.02546296296296" as="sourcePoint" />
            <mxPoint x="21.0989010989011" y="56.01851851851852" as="targetPoint" />
          </mxGeometry>
        </mxCell>
        <mxCell id="LHvr_J-ciVx7S9QtgNXV-278" value="" style="endArrow=none;html=1;rounded=0;" parent="LHvr_J-ciVx7S9QtgNXV-271" edge="1">
          <mxGeometry width="50" height="50" relative="1" as="geometry">
            <mxPoint y="35.01157407407407" as="sourcePoint" />
            <mxPoint x="21.0989010989011" y="56.01851851851852" as="targetPoint" />
          </mxGeometry>
        </mxCell>
        <mxCell id="LHvr_J-ciVx7S9QtgNXV-279" value="SUB" style="text;html=1;align=center;verticalAlign=middle;resizable=0;points=[];autosize=1;strokeColor=none;fillColor=none;rotation=90;" parent="LHvr_J-ciVx7S9QtgNXV-271" vertex="1">
          <mxGeometry x="11.604395604395604" y="40.74074074074074" width="50" height="30" as="geometry" />
        </mxCell>
        <mxCell id="LHvr_J-ciVx7S9QtgNXV-280" value="" style="group" parent="LHvr_J-ciVx7S9QtgNXV-270" vertex="1" connectable="0">
          <mxGeometry x="274.2857142857143" y="162.96296296296296" width="42.1978021978022" height="101.85185185185185" as="geometry" />
        </mxCell>
        <mxCell id="LHvr_J-ciVx7S9QtgNXV-281" value="" style="endArrow=none;html=1;rounded=0;" parent="LHvr_J-ciVx7S9QtgNXV-280" edge="1">
          <mxGeometry width="50" height="50" relative="1" as="geometry">
            <mxPoint as="sourcePoint" />
            <mxPoint x="42.1978021978022" y="21.825396825396826" as="targetPoint" />
          </mxGeometry>
        </mxCell>
        <mxCell id="LHvr_J-ciVx7S9QtgNXV-282" value="" style="endArrow=none;html=1;rounded=0;" parent="LHvr_J-ciVx7S9QtgNXV-280" edge="1">
          <mxGeometry width="50" height="50" relative="1" as="geometry">
            <mxPoint x="42.1978021978022" y="21.825396825396826" as="sourcePoint" />
            <mxPoint x="42.1978021978022" y="80.02645502645503" as="targetPoint" />
          </mxGeometry>
        </mxCell>
        <mxCell id="LHvr_J-ciVx7S9QtgNXV-283" value="" style="endArrow=none;html=1;rounded=0;" parent="LHvr_J-ciVx7S9QtgNXV-280" edge="1">
          <mxGeometry width="50" height="50" relative="1" as="geometry">
            <mxPoint x="42.1978021978022" y="80.02645502645503" as="sourcePoint" />
            <mxPoint y="101.85185185185185" as="targetPoint" />
          </mxGeometry>
        </mxCell>
        <mxCell id="LHvr_J-ciVx7S9QtgNXV-284" value="" style="endArrow=none;html=1;rounded=0;" parent="LHvr_J-ciVx7S9QtgNXV-280" edge="1">
          <mxGeometry width="50" height="50" relative="1" as="geometry">
            <mxPoint as="sourcePoint" />
            <mxPoint y="101.85185185185185" as="targetPoint" />
          </mxGeometry>
        </mxCell>
        <mxCell id="LHvr_J-ciVx7S9QtgNXV-285" value="&lt;font style=&quot;font-size: 15px;&quot;&gt;MUX&lt;/font&gt;" style="text;html=1;align=center;verticalAlign=middle;resizable=0;points=[];autosize=1;strokeColor=none;fillColor=none;strokeWidth=4;rotation=90;" parent="LHvr_J-ciVx7S9QtgNXV-280" vertex="1">
          <mxGeometry x="-10.54945054945055" y="36.37566137566137" width="60" height="30" as="geometry" />
        </mxCell>
        <mxCell id="LHvr_J-ciVx7S9QtgNXV-286" value="Sign" style="edgeStyle=orthogonalEdgeStyle;orthogonalLoop=1;jettySize=auto;html=1;rounded=0;" parent="LHvr_J-ciVx7S9QtgNXV-270" edge="1">
          <mxGeometry x="-0.0071" y="10" width="80" relative="1" as="geometry">
            <mxPoint x="168.7912087912088" y="295.3703703703704" as="sourcePoint" />
            <mxPoint x="295.38461538461536" y="254.62962962962962" as="targetPoint" />
            <mxPoint as="offset" />
          </mxGeometry>
        </mxCell>
        <mxCell id="LHvr_J-ciVx7S9QtgNXV-287" value="sign" style="edgeStyle=elbowEdgeStyle;orthogonalLoop=1;jettySize=auto;html=1;rounded=0;elbow=vertical;" parent="LHvr_J-ciVx7S9QtgNXV-270" edge="1">
          <mxGeometry width="80" relative="1" as="geometry">
            <mxPoint x="222.5934065934066" y="295.3703703703704" as="sourcePoint" />
            <mxPoint x="295.38461538461536" y="101.85185185185185" as="targetPoint" />
            <Array as="points">
              <mxPoint x="253.1868131868132" y="152.7777777777778" />
            </Array>
          </mxGeometry>
        </mxCell>
        <mxCell id="LHvr_J-ciVx7S9QtgNXV-288" value="" style="group" parent="LHvr_J-ciVx7S9QtgNXV-270" vertex="1" connectable="0">
          <mxGeometry x="274.2857142857143" y="10.185185185185185" width="42.1978021978022" height="101.85185185185185" as="geometry" />
        </mxCell>
        <mxCell id="LHvr_J-ciVx7S9QtgNXV-289" value="" style="endArrow=none;html=1;rounded=0;" parent="LHvr_J-ciVx7S9QtgNXV-288" edge="1">
          <mxGeometry width="50" height="50" relative="1" as="geometry">
            <mxPoint as="sourcePoint" />
            <mxPoint x="42.1978021978022" y="21.825396825396826" as="targetPoint" />
          </mxGeometry>
        </mxCell>
        <mxCell id="LHvr_J-ciVx7S9QtgNXV-290" value="" style="endArrow=none;html=1;rounded=0;" parent="LHvr_J-ciVx7S9QtgNXV-288" edge="1">
          <mxGeometry width="50" height="50" relative="1" as="geometry">
            <mxPoint x="42.1978021978022" y="21.825396825396826" as="sourcePoint" />
            <mxPoint x="42.1978021978022" y="80.02645502645503" as="targetPoint" />
          </mxGeometry>
        </mxCell>
        <mxCell id="LHvr_J-ciVx7S9QtgNXV-291" value="" style="endArrow=none;html=1;rounded=0;" parent="LHvr_J-ciVx7S9QtgNXV-288" edge="1">
          <mxGeometry width="50" height="50" relative="1" as="geometry">
            <mxPoint x="42.1978021978022" y="80.02645502645503" as="sourcePoint" />
            <mxPoint y="101.85185185185185" as="targetPoint" />
          </mxGeometry>
        </mxCell>
        <mxCell id="LHvr_J-ciVx7S9QtgNXV-292" value="" style="endArrow=none;html=1;rounded=0;" parent="LHvr_J-ciVx7S9QtgNXV-288" edge="1">
          <mxGeometry width="50" height="50" relative="1" as="geometry">
            <mxPoint as="sourcePoint" />
            <mxPoint y="101.85185185185185" as="targetPoint" />
          </mxGeometry>
        </mxCell>
        <mxCell id="LHvr_J-ciVx7S9QtgNXV-293" value="&lt;font style=&quot;font-size: 15px;&quot;&gt;MUX&lt;/font&gt;" style="text;html=1;align=center;verticalAlign=middle;resizable=0;points=[];autosize=1;strokeColor=none;fillColor=none;strokeWidth=4;rotation=90;" parent="LHvr_J-ciVx7S9QtgNXV-288" vertex="1">
          <mxGeometry x="-10.54945054945055" y="36.37566137566137" width="60" height="30" as="geometry" />
        </mxCell>
        <mxCell id="LHvr_J-ciVx7S9QtgNXV-294" value="" style="edgeStyle=none;orthogonalLoop=1;jettySize=auto;html=1;rounded=0;" parent="LHvr_J-ciVx7S9QtgNXV-270" edge="1">
          <mxGeometry width="80" relative="1" as="geometry">
            <mxPoint y="30.555555555555557" as="sourcePoint" />
            <mxPoint x="274.2857142857143" y="30.555555555555557" as="targetPoint" />
            <Array as="points" />
          </mxGeometry>
        </mxCell>
        <mxCell id="LHvr_J-ciVx7S9QtgNXV-295" value="" style="edgeStyle=none;orthogonalLoop=1;jettySize=auto;html=1;rounded=0;" parent="LHvr_J-ciVx7S9QtgNXV-270" edge="1">
          <mxGeometry width="80" relative="1" as="geometry">
            <mxPoint y="81.48148148148148" as="sourcePoint" />
            <mxPoint x="274.2857142857143" y="81.48148148148148" as="targetPoint" />
            <Array as="points" />
          </mxGeometry>
        </mxCell>
        <mxCell id="LHvr_J-ciVx7S9QtgNXV-296" value="" style="edgeStyle=none;orthogonalLoop=1;jettySize=auto;html=1;rounded=0;" parent="LHvr_J-ciVx7S9QtgNXV-270" edge="1">
          <mxGeometry width="80" relative="1" as="geometry">
            <mxPoint y="183.33333333333331" as="sourcePoint" />
            <mxPoint x="274.2857142857143" y="183.33333333333331" as="targetPoint" />
            <Array as="points" />
          </mxGeometry>
        </mxCell>
        <mxCell id="LHvr_J-ciVx7S9QtgNXV-297" value="" style="edgeStyle=none;orthogonalLoop=1;jettySize=auto;html=1;rounded=0;" parent="LHvr_J-ciVx7S9QtgNXV-270" edge="1">
          <mxGeometry width="80" relative="1" as="geometry">
            <mxPoint y="234.25925925925927" as="sourcePoint" />
            <mxPoint x="274.2857142857143" y="234.25925925925927" as="targetPoint" />
            <Array as="points" />
          </mxGeometry>
        </mxCell>
        <mxCell id="LHvr_J-ciVx7S9QtgNXV-298" value="frac_a" style="text;html=1;align=center;verticalAlign=middle;resizable=0;points=[];autosize=1;strokeColor=none;fillColor=none;" parent="LHvr_J-ciVx7S9QtgNXV-270" vertex="1">
          <mxGeometry x="10.54945054945055" y="152.7777777777778" width="60" height="30" as="geometry" />
        </mxCell>
        <mxCell id="LHvr_J-ciVx7S9QtgNXV-299" value="frac_b" style="text;html=1;align=center;verticalAlign=middle;resizable=0;points=[];autosize=1;strokeColor=none;fillColor=none;" parent="LHvr_J-ciVx7S9QtgNXV-270" vertex="1">
          <mxGeometry x="10.54945054945055" y="198.61111111111111" width="60" height="30" as="geometry" />
        </mxCell>
        <mxCell id="LHvr_J-ciVx7S9QtgNXV-300" value="frac_a" style="text;html=1;align=center;verticalAlign=middle;resizable=0;points=[];autosize=1;strokeColor=none;fillColor=none;" parent="LHvr_J-ciVx7S9QtgNXV-270" vertex="1">
          <mxGeometry x="21.0989010989011" width="60" height="30" as="geometry" />
        </mxCell>
        <mxCell id="LHvr_J-ciVx7S9QtgNXV-301" value="frac_b" style="text;html=1;align=center;verticalAlign=middle;resizable=0;points=[];autosize=1;strokeColor=none;fillColor=none;" parent="LHvr_J-ciVx7S9QtgNXV-270" vertex="1">
          <mxGeometry x="21.0989010989011" y="45.83333333333333" width="60" height="30" as="geometry" />
        </mxCell>
        <mxCell id="LHvr_J-ciVx7S9QtgNXV-302" value="" style="edgeStyle=none;orthogonalLoop=1;jettySize=auto;html=1;rounded=0;" parent="LHvr_J-ciVx7S9QtgNXV-270" edge="1">
          <mxGeometry width="80" relative="1" as="geometry">
            <mxPoint x="316.48351648351644" y="60.68333333333332" as="sourcePoint" />
            <mxPoint x="443.07692307692304" y="61.111111111111114" as="targetPoint" />
            <Array as="points" />
          </mxGeometry>
        </mxCell>
        <mxCell id="LHvr_J-ciVx7S9QtgNXV-303" value="" style="edgeStyle=none;orthogonalLoop=1;jettySize=auto;html=1;rounded=0;" parent="LHvr_J-ciVx7S9QtgNXV-270" edge="1">
          <mxGeometry width="80" relative="1" as="geometry">
            <mxPoint x="316.48351648351644" y="213.46111111111108" as="sourcePoint" />
            <mxPoint x="443.07692307692304" y="213.88888888888889" as="targetPoint" />
            <Array as="points" />
          </mxGeometry>
        </mxCell>
        <mxCell id="LHvr_J-ciVx7S9QtgNXV-304" value="Complement" style="whiteSpace=wrap;html=1;aspect=fixed;rotation=0;" parent="LHvr_J-ciVx7S9QtgNXV-270" vertex="1">
          <mxGeometry x="443.07692307692304" y="173.14814814814815" width="79.01234567901234" height="79.01234567901234" as="geometry" />
        </mxCell>
        <mxCell id="LHvr_J-ciVx7S9QtgNXV-305" value="shift" style="rounded=0;whiteSpace=wrap;html=1;" parent="LHvr_J-ciVx7S9QtgNXV-270" vertex="1">
          <mxGeometry x="443.07692307692304" y="10.185185185185185" width="42.1978021978022" height="74.86111111111111" as="geometry" />
        </mxCell>
        <mxCell id="LHvr_J-ciVx7S9QtgNXV-306" value="" style="edgeStyle=none;orthogonalLoop=1;jettySize=auto;html=1;rounded=0;entryX=0.5;entryY=1;entryDx=0;entryDy=0;" parent="LHvr_J-ciVx7S9QtgNXV-270" target="LHvr_J-ciVx7S9QtgNXV-305" edge="1">
          <mxGeometry width="80" relative="1" as="geometry">
            <mxPoint x="168.7912087912088" y="325.9259259259259" as="sourcePoint" />
            <mxPoint x="495.8241758241758" y="112.03703703703704" as="targetPoint" />
            <Array as="points">
              <mxPoint x="400.8791208791208" y="325.9259259259259" />
              <mxPoint x="400.8791208791208" y="112.03703703703704" />
              <mxPoint x="464.1758241758241" y="112.03703703703704" />
            </Array>
          </mxGeometry>
        </mxCell>
        <mxCell id="LHvr_J-ciVx7S9QtgNXV-307" value="D" style="text;html=1;align=center;verticalAlign=middle;resizable=0;points=[];autosize=1;strokeColor=none;fillColor=none;" parent="LHvr_J-ciVx7S9QtgNXV-270" vertex="1">
          <mxGeometry x="205.7142857142857" y="323.8888888888889" width="30" height="30" as="geometry" />
        </mxCell>
        <mxCell id="LHvr_J-ciVx7S9QtgNXV-308" value="" style="edgeStyle=none;orthogonalLoop=1;jettySize=auto;html=1;rounded=0;" parent="LHvr_J-ciVx7S9QtgNXV-270" edge="1">
          <mxGeometry width="80" relative="1" as="geometry">
            <mxPoint y="275" as="sourcePoint" />
            <mxPoint x="116.04395604395603" y="275" as="targetPoint" />
            <Array as="points" />
          </mxGeometry>
        </mxCell>
        <mxCell id="LHvr_J-ciVx7S9QtgNXV-309" value="" style="edgeStyle=none;orthogonalLoop=1;jettySize=auto;html=1;rounded=0;" parent="LHvr_J-ciVx7S9QtgNXV-270" edge="1">
          <mxGeometry width="80" relative="1" as="geometry">
            <mxPoint y="346.2962962962963" as="sourcePoint" />
            <mxPoint x="116.04395604395603" y="346.2962962962963" as="targetPoint" />
            <Array as="points" />
          </mxGeometry>
        </mxCell>
        <mxCell id="LHvr_J-ciVx7S9QtgNXV-310" value="exp_a" style="text;html=1;align=center;verticalAlign=middle;resizable=0;points=[];autosize=1;strokeColor=none;fillColor=none;" parent="LHvr_J-ciVx7S9QtgNXV-270" vertex="1">
          <mxGeometry x="10.54945054945055" y="252.59259259259258" width="60" height="30" as="geometry" />
        </mxCell>
        <mxCell id="LHvr_J-ciVx7S9QtgNXV-311" value="exp_b" style="text;html=1;align=center;verticalAlign=middle;resizable=0;points=[];autosize=1;strokeColor=none;fillColor=none;" parent="LHvr_J-ciVx7S9QtgNXV-270" vertex="1">
          <mxGeometry x="10.54945054945055" y="323.8888888888889" width="60" height="30" as="geometry" />
        </mxCell>
        <mxCell id="LHvr_J-ciVx7S9QtgNXV-312" value="" style="group" parent="LHvr_J-ciVx7S9QtgNXV-270" vertex="1" connectable="0">
          <mxGeometry x="590.7692307692307" y="90.64814814814815" width="52.747252747252745" height="112.03703703703704" as="geometry" />
        </mxCell>
        <mxCell id="LHvr_J-ciVx7S9QtgNXV-313" value="" style="endArrow=none;html=1;rounded=0;" parent="LHvr_J-ciVx7S9QtgNXV-312" edge="1">
          <mxGeometry width="50" height="50" relative="1" as="geometry">
            <mxPoint as="sourcePoint" />
            <mxPoint x="52.747252747252745" y="28.00925925925926" as="targetPoint" />
          </mxGeometry>
        </mxCell>
        <mxCell id="LHvr_J-ciVx7S9QtgNXV-314" value="" style="endArrow=none;html=1;rounded=0;" parent="LHvr_J-ciVx7S9QtgNXV-312" edge="1">
          <mxGeometry width="50" height="50" relative="1" as="geometry">
            <mxPoint x="52.747252747252745" y="84.02777777777779" as="sourcePoint" />
            <mxPoint x="52.747252747252745" y="28.00925925925926" as="targetPoint" />
          </mxGeometry>
        </mxCell>
        <mxCell id="LHvr_J-ciVx7S9QtgNXV-315" value="" style="endArrow=none;html=1;rounded=0;" parent="LHvr_J-ciVx7S9QtgNXV-312" edge="1">
          <mxGeometry width="50" height="50" relative="1" as="geometry">
            <mxPoint y="35.01157407407407" as="sourcePoint" />
            <mxPoint as="targetPoint" />
          </mxGeometry>
        </mxCell>
        <mxCell id="LHvr_J-ciVx7S9QtgNXV-316" value="" style="endArrow=none;html=1;rounded=0;" parent="LHvr_J-ciVx7S9QtgNXV-312" edge="1">
          <mxGeometry width="50" height="50" relative="1" as="geometry">
            <mxPoint y="112.03703703703704" as="sourcePoint" />
            <mxPoint y="77.02546296296296" as="targetPoint" />
          </mxGeometry>
        </mxCell>
        <mxCell id="LHvr_J-ciVx7S9QtgNXV-317" value="" style="endArrow=none;html=1;rounded=0;" parent="LHvr_J-ciVx7S9QtgNXV-312" edge="1">
          <mxGeometry width="50" height="50" relative="1" as="geometry">
            <mxPoint y="112.03703703703704" as="sourcePoint" />
            <mxPoint x="52.747252747252745" y="84.02777777777779" as="targetPoint" />
          </mxGeometry>
        </mxCell>
        <mxCell id="LHvr_J-ciVx7S9QtgNXV-318" value="" style="endArrow=none;html=1;rounded=0;" parent="LHvr_J-ciVx7S9QtgNXV-312" edge="1">
          <mxGeometry width="50" height="50" relative="1" as="geometry">
            <mxPoint y="77.02546296296296" as="sourcePoint" />
            <mxPoint x="21.0989010989011" y="56.01851851851852" as="targetPoint" />
          </mxGeometry>
        </mxCell>
        <mxCell id="LHvr_J-ciVx7S9QtgNXV-319" value="" style="endArrow=none;html=1;rounded=0;" parent="LHvr_J-ciVx7S9QtgNXV-312" edge="1">
          <mxGeometry width="50" height="50" relative="1" as="geometry">
            <mxPoint y="35.01157407407407" as="sourcePoint" />
            <mxPoint x="21.0989010989011" y="56.01851851851852" as="targetPoint" />
          </mxGeometry>
        </mxCell>
        <mxCell id="LHvr_J-ciVx7S9QtgNXV-320" value="ADD" style="text;html=1;align=center;verticalAlign=middle;resizable=0;points=[];autosize=1;strokeColor=none;fillColor=none;rotation=90;" parent="LHvr_J-ciVx7S9QtgNXV-312" vertex="1">
          <mxGeometry x="11.604395604395604" y="40.74074074074074" width="50" height="30" as="geometry" />
        </mxCell>
        <mxCell id="LHvr_J-ciVx7S9QtgNXV-321" value="" style="edgeStyle=none;orthogonalLoop=1;jettySize=auto;html=1;rounded=0;exitX=0.992;exitY=0.678;exitDx=0;exitDy=0;exitPerimeter=0;" parent="LHvr_J-ciVx7S9QtgNXV-270" source="LHvr_J-ciVx7S9QtgNXV-305" edge="1">
          <mxGeometry width="80" relative="1" as="geometry">
            <mxPoint x="527.4725274725274" y="59.79722222222223" as="sourcePoint" />
            <mxPoint x="590.7692307692307" y="100.83333333333333" as="targetPoint" />
            <Array as="points">
              <mxPoint x="569.6703296703297" y="60.09259259259259" />
              <mxPoint x="569.6703296703297" y="100.83333333333333" />
            </Array>
          </mxGeometry>
        </mxCell>
        <mxCell id="LHvr_J-ciVx7S9QtgNXV-322" value="" style="edgeStyle=none;orthogonalLoop=1;jettySize=auto;html=1;rounded=0;" parent="LHvr_J-ciVx7S9QtgNXV-270" edge="1">
          <mxGeometry width="80" relative="1" as="geometry">
            <mxPoint x="527.4725274725274" y="213.5935185185185" as="sourcePoint" />
            <mxPoint x="590.7692307692307" y="182.3148148148148" as="targetPoint" />
            <Array as="points">
              <mxPoint x="548.5714285714286" y="213.88888888888889" />
              <mxPoint x="569.6703296703297" y="212.87037037037038" />
              <mxPoint x="569.6703296703297" y="182.3148148148148" />
            </Array>
          </mxGeometry>
        </mxCell>
        <mxCell id="LHvr_J-ciVx7S9QtgNXV-323" value="Complement" style="whiteSpace=wrap;html=1;aspect=fixed;rotation=0;" parent="LHvr_J-ciVx7S9QtgNXV-270" vertex="1">
          <mxGeometry x="685.7142857142857" y="112.03703703703704" width="79.01234567901234" height="79.01234567901234" as="geometry" />
        </mxCell>
        <mxCell id="LHvr_J-ciVx7S9QtgNXV-324" value="" style="edgeStyle=none;orthogonalLoop=1;jettySize=auto;html=1;rounded=0;exitX=0.523;exitY=-0.023;exitDx=0;exitDy=0;exitPerimeter=0;" parent="LHvr_J-ciVx7S9QtgNXV-270" source="LHvr_J-ciVx7S9QtgNXV-320" edge="1">
          <mxGeometry width="80" relative="1" as="geometry">
            <mxPoint x="654.0659340659341" y="142.5925925925926" as="sourcePoint" />
            <mxPoint x="685.7142857142857" y="147.6851851851852" as="targetPoint" />
            <Array as="points" />
          </mxGeometry>
        </mxCell>
        <mxCell id="LHvr_J-ciVx7S9QtgNXV-325" style="edgeStyle=elbowEdgeStyle;rounded=0;orthogonalLoop=1;jettySize=auto;html=1;entryX=0.25;entryY=1;entryDx=0;entryDy=0;exitX=1;exitY=0.5;exitDx=0;exitDy=0;exitPerimeter=0;" parent="LHvr_J-ciVx7S9QtgNXV-270" source="LHvr_J-ciVx7S9QtgNXV-326" edge="1">
          <mxGeometry relative="1" as="geometry">
            <mxPoint x="485.2747252747253" y="254.62962962962962" as="targetPoint" />
            <mxPoint x="348.1318681318681" y="458.3333333333333" as="sourcePoint" />
            <Array as="points">
              <mxPoint x="485.2747252747253" y="458.3333333333333" />
            </Array>
          </mxGeometry>
        </mxCell>
        <mxCell id="LHvr_J-ciVx7S9QtgNXV-326" value="" style="verticalLabelPosition=bottom;shadow=0;dashed=0;align=center;html=1;verticalAlign=top;shape=mxgraph.electrical.logic_gates.logic_gate;operation=xor;" parent="LHvr_J-ciVx7S9QtgNXV-270" vertex="1">
          <mxGeometry x="210.98901098901098" y="437.96296296296293" width="116.04395604395603" height="40.74074074074074" as="geometry" />
        </mxCell>
        <mxCell id="LHvr_J-ciVx7S9QtgNXV-327" value="" style="edgeStyle=none;orthogonalLoop=1;jettySize=auto;html=1;rounded=0;entryX=0;entryY=0.25;entryDx=0;entryDy=0;entryPerimeter=0;" parent="LHvr_J-ciVx7S9QtgNXV-270" target="LHvr_J-ciVx7S9QtgNXV-326" edge="1">
          <mxGeometry width="80" relative="1" as="geometry">
            <mxPoint y="448.14814814814815" as="sourcePoint" />
            <mxPoint x="200.4395604395604" y="437.96296296296293" as="targetPoint" />
            <Array as="points" />
          </mxGeometry>
        </mxCell>
        <mxCell id="LHvr_J-ciVx7S9QtgNXV-328" value="" style="endArrow=none;html=1;rounded=0;entryX=0.229;entryY=0.502;entryDx=0;entryDy=0;entryPerimeter=0;" parent="LHvr_J-ciVx7S9QtgNXV-270" target="LHvr_J-ciVx7S9QtgNXV-326" edge="1">
          <mxGeometry width="50" height="50" relative="1" as="geometry">
            <mxPoint x="208.14065934065928" y="458.59814814814814" as="sourcePoint" />
            <mxPoint x="234.94681318681316" y="458.06851851851854" as="targetPoint" />
            <Array as="points">
              <mxPoint x="208.14065934065928" y="458.59814814814814" />
            </Array>
          </mxGeometry>
        </mxCell>
        <mxCell id="LHvr_J-ciVx7S9QtgNXV-329" value="" style="edgeStyle=none;orthogonalLoop=1;jettySize=auto;html=1;rounded=0;entryX=0;entryY=0.25;entryDx=0;entryDy=0;entryPerimeter=0;" parent="LHvr_J-ciVx7S9QtgNXV-270" edge="1">
          <mxGeometry width="80" relative="1" as="geometry">
            <mxPoint x="116.04395604395603" y="468.51851851851853" as="sourcePoint" />
            <mxPoint x="210.98901098901098" y="468.51851851851853" as="targetPoint" />
            <Array as="points" />
          </mxGeometry>
        </mxCell>
        <mxCell id="LHvr_J-ciVx7S9QtgNXV-330" value="op" style="edgeLabel;html=1;align=center;verticalAlign=middle;resizable=0;points=[];" parent="LHvr_J-ciVx7S9QtgNXV-329" vertex="1" connectable="0">
          <mxGeometry x="-0.5558" y="2" relative="1" as="geometry">
            <mxPoint as="offset" />
          </mxGeometry>
        </mxCell>
        <mxCell id="LHvr_J-ciVx7S9QtgNXV-331" value="" style="edgeStyle=none;orthogonalLoop=1;jettySize=auto;html=1;rounded=0;entryX=0;entryY=0.25;entryDx=0;entryDy=0;entryPerimeter=0;" parent="LHvr_J-ciVx7S9QtgNXV-270" edge="1">
          <mxGeometry width="80" relative="1" as="geometry">
            <mxPoint y="458.3333333333333" as="sourcePoint" />
            <mxPoint x="210.98901098901098" y="458.3027777777778" as="targetPoint" />
            <Array as="points" />
          </mxGeometry>
        </mxCell>
        <mxCell id="LHvr_J-ciVx7S9QtgNXV-332" value="sign_b" style="edgeLabel;html=1;align=center;verticalAlign=middle;resizable=0;points=[];" parent="LHvr_J-ciVx7S9QtgNXV-331" vertex="1" connectable="0">
          <mxGeometry x="-0.1901" y="2" relative="1" as="geometry">
            <mxPoint as="offset" />
          </mxGeometry>
        </mxCell>
        <mxCell id="LHvr_J-ciVx7S9QtgNXV-333" value="LZD" style="rounded=0;whiteSpace=wrap;html=1;" parent="LHvr_J-ciVx7S9QtgNXV-270" vertex="1">
          <mxGeometry x="812.3076923076923" y="96.75925925925925" width="52.747252747252745" height="112.03703703703704" as="geometry" />
        </mxCell>
        <mxCell id="LHvr_J-ciVx7S9QtgNXV-334" style="edgeStyle=elbowEdgeStyle;rounded=0;orthogonalLoop=1;jettySize=auto;html=1;exitX=1;exitY=0.5;exitDx=0;exitDy=0;entryX=0;entryY=0.5;entryDx=0;entryDy=0;" parent="LHvr_J-ciVx7S9QtgNXV-270" source="LHvr_J-ciVx7S9QtgNXV-323" target="LHvr_J-ciVx7S9QtgNXV-333" edge="1">
          <mxGeometry relative="1" as="geometry" />
        </mxCell>
        <mxCell id="LHvr_J-ciVx7S9QtgNXV-335" value="shift" style="rounded=0;whiteSpace=wrap;html=1;" parent="LHvr_J-ciVx7S9QtgNXV-270" vertex="1">
          <mxGeometry x="896.7032967032966" y="122.22222222222223" width="42.1978021978022" height="61.111111111111114" as="geometry" />
        </mxCell>
        <mxCell id="LHvr_J-ciVx7S9QtgNXV-336" style="edgeStyle=elbowEdgeStyle;rounded=0;orthogonalLoop=1;jettySize=auto;html=1;exitX=1;exitY=0.5;exitDx=0;exitDy=0;entryX=0;entryY=0.5;entryDx=0;entryDy=0;" parent="LHvr_J-ciVx7S9QtgNXV-270" source="LHvr_J-ciVx7S9QtgNXV-333" target="LHvr_J-ciVx7S9QtgNXV-335" edge="1">
          <mxGeometry relative="1" as="geometry" />
        </mxCell>
        <mxCell id="LHvr_J-ciVx7S9QtgNXV-337" value="sign_a" style="text;html=1;align=center;verticalAlign=middle;resizable=0;points=[];autosize=1;strokeColor=none;fillColor=none;" parent="LHvr_J-ciVx7S9QtgNXV-270" vertex="1">
          <mxGeometry x="-5.274725274725275" y="425.74074074074076" width="60" height="30" as="geometry" />
        </mxCell>
        <mxCell id="LHvr_J-ciVx7S9QtgNXV-338" value="" style="endArrow=none;html=1;rounded=0;" parent="LHvr_J-ciVx7S9QtgNXV-269" edge="1">
          <mxGeometry width="50" height="50" relative="1" as="geometry">
            <mxPoint y="468.51851851851853" as="sourcePoint" />
            <mxPoint x="116.04395604395603" y="468.51851851851853" as="targetPoint" />
          </mxGeometry>
        </mxCell>
        <mxCell id="LHvr_J-ciVx7S9QtgNXV-340" value="dist" style="text;html=1;align=center;verticalAlign=middle;resizable=0;points=[];autosize=1;strokeColor=none;fillColor=none;" parent="1" vertex="1">
          <mxGeometry x="240" y="260" width="40" height="30" as="geometry" />
        </mxCell>
      </root>
    </mxGraphModel>
  </diagram>
</mxfile>
